HIERARCHY
ROOT Hips
{
 OFFSET 0.000000 0.000000 0.000000
 CHANNELS 6 Xposition Yposition Zposition Yrotation Xrotation Zrotation
 JOINT Chest
 {
  OFFSET 0.000000 9.581000 -0.001100
  CHANNELS 3 Yrotation Xrotation Zrotation
  JOINT Chest2
  {
   OFFSET 0.000000 9.561100 0.002200
   CHANNELS 3 Yrotation Xrotation Zrotation
   JOINT Chest3
   {
    OFFSET 0.000000 9.521100 0.000000
    CHANNELS 3 Yrotation Xrotation Zrotation
    JOINT Chest4
    {
     OFFSET 0.000000 9.511400 0.000000
     CHANNELS 3 Yrotation Xrotation Zrotation
     JOINT Neck
     {
      OFFSET 0.000000 14.375100 0.000000
      CHANNELS 3 Yrotation Xrotation Zrotation
      JOINT Head
      {
       OFFSET 0.000000 8.901200 0.004600
       CHANNELS 3 Yrotation Xrotation Zrotation
       End Site
       {
        OFFSET 0.000000 16.962200 0.002400
       }
      }
     }
     JOINT RightCollar
     {
      OFFSET -2.920100 9.518800 0.000000
      CHANNELS 3 Yrotation Xrotation Zrotation
      JOINT RightShoulder
      {
       OFFSET -13.664500 0.000000 0.000000
       CHANNELS 3 Yrotation Xrotation Zrotation
       JOINT RightElbow
       {
        OFFSET 0.000000 -29.999200 0.000000
        CHANNELS 3 Yrotation Xrotation Zrotation
        JOINT RightWrist
        {
         OFFSET 0.000000 -24.253600 0.000000
         CHANNELS 3 Yrotation Xrotation Zrotation
         End Site
         {
          OFFSET 0.000000 -17.918900 0.000000
         }
        }
       }
      }
     }
     JOINT LeftCollar
     {
      OFFSET 2.920100 9.518800 0.000000
      CHANNELS 3 Yrotation Xrotation Zrotation
      JOINT LeftShoulder
      {
       OFFSET 13.664500 0.000000 0.000000
       CHANNELS 3 Yrotation Xrotation Zrotation
       JOINT LeftElbow
       {
        OFFSET 0.000000 -29.999200 0.000000
        CHANNELS 3 Yrotation Xrotation Zrotation
        JOINT LeftWrist
        {
         OFFSET 0.000000 -24.253600 0.000000
         CHANNELS 3 Yrotation Xrotation Zrotation
         End Site
         {
          OFFSET 0.000000 -17.918900 0.000000
         }
        }
       }
      }
     }
    }
   }
  }
 }
 JOINT RightHip
 {
  OFFSET -7.797300 0.005300 0.000500
  CHANNELS 3 Yrotation Xrotation Zrotation
  JOINT RightKnee
  {
   OFFSET 0.000000 -40.663400 -0.000500
   CHANNELS 3 Yrotation Xrotation Zrotation
   JOINT RightAnkle
   {
    OFFSET 0.000000 -39.523700 -0.000900
    CHANNELS 3 Yrotation Xrotation Zrotation
    JOINT RightToe
    {
     OFFSET 0.000000 -6.418000 14.485300
     CHANNELS 3 Yrotation Xrotation Zrotation
     End Site
     {
      OFFSET 0.000000 -1.465200 6.326400
     }
    }
   }
  }
 }
 JOINT LeftHip
 {
  OFFSET 7.797300 0.005300 0.000500
  CHANNELS 3 Yrotation Xrotation Zrotation
  JOINT LeftKnee
  {
   OFFSET 0.000000 -40.663400 -0.000500
   CHANNELS 3 Yrotation Xrotation Zrotation
   JOINT LeftAnkle
   {
    OFFSET 0.000000 -39.523700 -0.000900
    CHANNELS 3 Yrotation Xrotation Zrotation
    JOINT LeftToe
    {
     OFFSET 0.000000 -6.418000 14.485300
     CHANNELS 3 Yrotation Xrotation Zrotation
     End Site
     {
      OFFSET 0.000000 -1.465200 6.326400
     }
    }
   }
  }
 }
}
MOTION
Frames: 16
Frame Time: 0.008333
0.000000 86.422400 0.000000 0.000000 -5.767877 0.000000 0.000000 11.653817 0.000000 0.000000 -5.885947 0.000000 0.000000 -0.000000 0.000000 0.000000 -0.000000 0.000000 0.000000 12.528835 0.000000 0.000000 0.711642 0.000000 0.000000 -0.000000 0.000000 0.000000 0.000000 -90.000000 0.000000 -2.309062 0.000000 0.000000 2.309062 0.000000 0.000000 -0.000000 0.000000 0.000000 -0.000000 90.000000 0.000000 -2.309062 0.000000 0.000000 2.309062 0.000000 0.000000 8.520406 0.000000 0.000000 1.905762 0.000000 -0.000000 -4.658285 0.000000 0.000000 -0.000000 0.000000 0.000000 8.520406 0.000000 0.000000 1.905762 0.000000 -0.000000 -4.658285 0.000000 0.000000 -0.000000 0.000000
-14.102662 126.911166 25.805740 -167.676464 -48.569809 -2.755825 -3.178331 26.368834 -0.772937 -0.496049 4.445066 -0.021874 -0.784666 7.043136 -0.040203 -2.550748 21.653833 -0.526691 -1.703753 12.215375 -3.333089 -1.055303 -12.784416 -3.158596 1.756723 4.299743 1.029536 5.410200 -7.389704 -9.941564 -92.155877 -63.195802 143.345230 5.639875 18.796764 -13.428578 -8.004292 0.769849 -1.311039 -8.334402 -8.277825 14.413341 63.410489 -55.947743 -113.890199 3.095323 4.611031 18.404989 -5.394534 -23.967779 -5.612137 -3.602498 77.653371 -3.200890 9.901599 -10.474693 2.443915 -0.005059 0.000232 -0.002241 6.155751 5.414230 1.482740 128.425129 65.397668 148.008886 6.515898 12.279798 0.197595 -0.005474 -0.000425 -0.002425
-14.102345 126.911447 25.805973 -167.671101 -48.576111 -2.748562 -3.184020 26.363034 -0.773924 -0.496144 4.442334 -0.021174 -0.783869 7.040070 -0.038900 -2.519324 21.583562 -0.470471 -1.703004 12.161418 -3.456572 -1.008828 -12.884083 -3.267166 1.726846 4.314154 1.025933 5.404626 -7.405516 -9.931176 -92.140668 -63.198922 143.334280 5.633371 18.800280 -13.419234 -8.033419 0.794334 -1.339138 -8.325215 -8.280859 14.406311 63.446254 -55.974047 -113.895036 3.098793 4.638151 18.373986 -5.386331 -23.948359 -5.616483 -3.642606 77.656239 -3.233264 9.895064 -10.574212 2.440417 -0.004528 -0.001713 -0.002006 6.156197 5.423023 1.481287 128.427237 65.402773 148.013965 6.504249 12.268060 0.212878 -0.002582 -0.003824 -0.001144
-14.101133 126.912005 25.805881 -167.662504 -48.584539 -2.747624 -3.183010 26.349618 -0.757453 -0.496028 4.437780 -0.019285 -0.790560 7.049702 -0.048707 -2.504077 21.555619 -0.450755 -1.677889 12.078518 -3.551414 -0.961492 -12.968862 -3.376922 1.712427 4.275354 1.050155 5.407528 -7.390530 -9.929476 -92.173741 -63.198850 143.366886 5.626328 18.800736 -13.407519 -8.052680 0.806455 -1.349336 -8.311488 -8.312855 14.420631 63.475797 -55.999989 -113.895202 3.104351 4.666307 18.340463 -5.381144 -23.935669 -5.609690 -3.709406 77.668974 -3.296509 9.885228 -10.640467 2.437373 -0.002984 0.003086 -0.001322 6.153172 5.434923 1.485434 128.417053 65.406141 148.002655 6.492434 12.260934 0.227096 -0.002461 -0.006010 -0.001090
-14.099367 126.911423 25.806752 -167.660235 -48.583922 -2.742887 -3.157546 26.304742 -0.712068 -0.499526 4.432856 -0.020446 -0.783685 7.026988 -0.040408 -2.544308 21.602623 -0.482492 -1.634686 11.988609 -3.635943 -0.913271 -13.038308 -3.485261 1.707486 4.226152 1.072915 5.413986 -7.383801 -9.919190 -92.112547 -63.223517 143.294863 5.642368 18.768994 -13.385218 -8.059597 0.797259 -1.342814 -8.295707 -8.347292 14.433682 63.503675 -56.023132 -113.895605 3.108286 4.695881 18.301546 -5.379740 -23.923654 -5.609222 -3.686602 77.681960 -3.265114 9.867543 -10.774842 2.423262 -0.003122 -0.000275 -0.001383 6.153644 5.438362 1.488786 128.423247 65.411411 148.007374 6.482272 12.244140 0.259022 -0.001164 -0.010674 -0.000516
-14.098897 126.911744 25.807026 -167.660403 -48.590731 -2.729034 -3.146932 26.291777 -0.704584 -0.512115 4.445376 -0.031144 -0.777666 7.016391 -0.035423 -2.516124 21.563791 -0.459032 -1.615303 11.945483 -3.731324 -0.864221 -13.093174 -3.590720 1.676292 4.208548 1.083103 5.417598 -7.371021 -9.910674 -92.059721 -63.242153 143.232841 5.660630 18.737950 -13.362613 -8.089133 0.790556 -1.330925 -8.277568 -8.357869 14.423653 63.531623 -56.041389 -113.897767 3.155969 4.725894 18.266546 -5.372243 -23.906020 -5.616409 -3.661193 77.700100 -3.236444 9.848786 -10.917239 2.418881 -0.003788 -0.003014 -0.001678 6.153899 5.449674 1.486030 128.423998 65.414457 148.008218 6.492091 12.261771 0.192235 -0.002342 -0.003024 -0.001037
-14.100058 126.912238 25.807441 -167.651343 -48.598586 -2.712370 -3.145543 26.279280 -0.708413 -0.511527 4.440245 -0.029659 -0.786467 7.023668 -0.041743 -2.484162 21.523947 -0.437635 -1.596981 11.916797 -3.822085 -0.815640 -13.133828 -3.692611 1.636963 4.228693 1.082806 5.420023 -7.378699 -9.902806 -92.131171 -63.238231 143.294717 5.656956 18.743149 -13.339149 -8.122617 0.784923 -1.317635 -8.253219 -8.369467 14.415101 63.556377 -56.057755 -113.904337 3.203113 4.756949 18.235735 -5.358689 -23.892837 -5.634162 -3.620387 77.734100 -3.195445 9.822208 -11.057958 2.429488 -0.003046 -0.001817 -0.001350 6.146722 5.464211 1.475672 128.422863 65.419462 148.003619 6.496469 12.266447 0.143751 -0.002990 0.001222 -0.001325
-14.098264 126.912554 25.807602 -167.654025 -48.604581 -2.704655 -3.126277 26.264991 -0.692263 -0.489659 4.407970 -0.012714 -0.780324 7.005274 -0.038049 -2.504258 21.547508 -0.446416 -1.571981 11.890319 -3.905248 -0.770458 -13.160495 -3.789549 1.609438 4.182873 1.095702 5.410130 -7.300740 -9.908515 -92.424184 -63.224560 143.587753 5.596676 18.795225 -13.328505 -8.146745 0.765223 -1.296546 -8.226261 -8.379197 14.404254 63.515518 -56.036219 -113.877653 3.152818 4.781173 18.191373 -5.342549 -23.879649 -5.632494 -3.676070 77.754218 -3.245012 9.818647 -11.188610 2.448902 -0.003476 -0.001736 -0.001540 6.146914 5.480302 1.490961 128.433847 65.431270 148.008827 6.492490 12.260922 0.128089 -0.000310 0.005276 -0.000137
-14.096188 126.911989 25.808576 -167.652329 -48.603497 -2.701014 -3.107939 26.244175 -0.675276 -0.487195 4.401512 -0.011545 -0.776367 6.995681 -0.036082 -2.492862 21.536247 -0.438850 -1.548747 11.878100 -3.982913 -0.728356 -13.172422 -3.879989 1.575347 4.134978 1.107673 5.406163 -7.271334 -9.899009 -92.455918 -63.241524 143.612457 5.597677 18.795106 -13.299397 -8.174137 0.743651 -1.278363 -8.197991 -8.388776 14.397730 63.468240 -56.014604 -113.845937 3.024917 4.807581 18.108525 -5.305258 -23.873364 -5.632899 -3.786226 77.776447 -3.337521 9.829528 -11.323835 2.481666 -0.000822 -0.001612 -0.000364 6.145103 5.482852 1.491590 128.429603 65.426926 148.005313 6.485639 12.251514 0.120973 -0.000864 0.004196 -0.000383
-14.094050 126.910955 25.810058 -167.646038 -48.598897 -2.700618 -3.091763 26.219841 -0.658678 -0.490600 4.401818 -0.013781 -0.780734 6.997202 -0.037985 -2.465815 21.507979 -0.425781 -1.557235 11.898306 -4.022388 -0.648997 -13.188149 -4.002854 1.538922 4.100802 1.115081 5.393170 -7.258299 -9.886810 -92.482978 -63.259702 143.643008 5.601242 18.796013 -13.267120 -8.188020 0.671094 -1.248218 -8.180335 -8.351887 14.371387 63.566787 -56.088067 -113.899342 3.066540 4.861132 18.013607 -5.291512 -23.874598 -5.634901 -3.849667 77.807282 -3.402142 9.860493 -11.468957 2.515419 -0.000756 -0.001851 -0.000335 6.140540 5.483370 1.491110 128.427034 65.420724 147.998414 6.473522 12.211628 0.178792 0.000744 -0.004179 0.000330
-14.093089 126.911161 25.810701 -167.633875 -48.605168 -2.698634 -3.093559 26.215762 -0.660419 -0.495245 4.405434 -0.016567 -0.772435 6.985705 -0.034210 -2.439914 21.479859 -0.413719 -1.519716 11.908599 -4.104406 -0.631587 -13.152772 -4.058463 1.506323 4.065644 1.122386 5.373617 -7.296910 -9.878177 -92.404635 -63.278882 143.571096 5.598527 18.797380 -13.242294 -8.207825 0.635025 -1.228592 -8.176168 -8.312370 14.345454 63.668831 -56.149442 -113.963397 3.085058 4.893523 17.950157 -5.280465 -23.880066 -5.640721 -3.981903 77.862565 -3.537046 9.885600 -11.577448 2.533788 -0.001386 0.003784 -0.000614 6.131173 5.497380 1.490832 128.432317 65.428955 148.001107 6.468612 12.198650 0.197329 0.005513 -0.008384 0.002442
-14.091899 126.911220 25.811593 -167.633986 -48.611244 -2.688078 -3.087219 26.210755 -0.661480 -0.482732 4.389514 -0.009592 -0.748241 6.946443 -0.024990 -2.462602 21.508724 -0.420164 -1.477897 11.931979 -4.178538 -0.618181 -13.098985 -4.107045 1.485792 4.022304 1.129393 5.363374 -7.303056 -9.877066 -92.415724 -63.291874 143.580278 5.552227 18.821248 -13.244185 -8.223367 0.608944 -1.210953 -8.146322 -8.349663 14.346296 63.651915 -56.147148 -113.944261 3.127274 4.923761 17.911281 -5.266860 -23.863903 -5.653466 -4.018014 77.881158 -3.569440 9.901736 -11.746853 2.571597 -0.001323 0.000528 -0.000586 6.128422 5.510726 1.490217 128.437796 65.434213 147.992974 6.480988 12.197320 0.186542 0.001958 -0.005689 0.000868
-14.090888 126.911188 25.812734 -167.636206 -48.617851 -2.673931 -3.070289 26.192902 -0.657065 -0.479794 4.383175 -0.008637 -0.737626 6.923041 -0.021035 -2.460522 21.505637 -0.418299 -1.463413 11.998983 -4.231121 -0.590876 -13.028838 -4.166616 1.457797 3.999483 1.134915 5.365709 -7.293164 -9.876326 -92.472517 -63.303819 143.622904 5.562744 18.804940 -13.217996 -8.253446 0.633730 -1.206098 -8.112667 -8.417676 14.362036 63.635702 -56.145546 -113.930931 3.102240 4.941217 17.863690 -5.253110 -23.850545 -5.665806 -4.058753 77.911437 -3.612256 9.911396 -11.924825 2.613484 -0.001419 -0.002064 -0.000629 6.124826 5.524208 1.483464 128.415679 65.426125 147.954988 6.479127 12.192437 0.181969 -0.004124 -0.001715 -0.001827
-14.091961 126.911707 25.813890 -167.631250 -48.630370 -2.652309 -3.061999 26.176483 -0.666786 -0.462889 4.352764 0.001695 -0.764978 6.959132 -0.032912 -2.428424 21.457248 -0.408107 -1.460226 12.097442 -4.278515 -0.567077 -12.941611 -4.219613 1.422483 3.989014 1.140616 5.378204 -7.284581 -9.880230 -92.477214 -63.308394 143.602503 5.580178 18.785868 -13.193336 -8.282632 0.619262 -1.191618 -8.091933 -8.413164 14.347473 63.583657 -56.128774 -113.891975 3.034094 4.935074 17.833399 -5.240286 -23.839891 -5.693817 -4.122552 77.949614 -3.679444 9.926458 -12.078434 2.639912 -0.001998 -0.001845 -0.000885 6.117900 5.543230 1.464124 128.406303 65.429487 147.938519 6.478745 12.198687 0.168865 -0.003087 -0.000701 -0.001368
-14.091056 126.911717 25.815400 -167.633587 -48.640161 -2.635914 -3.036868 26.144259 -0.649674 -0.486511 4.386403 -0.015963 -0.757863 6.945951 -0.029778 -2.425185 21.451072 -0.408575 -1.454457 12.142306 -4.300955 -0.515725 -12.820509 -4.294243 1.415113 3.932829 1.145886 5.392901 -7.276765 -9.891278 -92.380618 -63.301611 143.475466 5.580426 18.782705 -13.188014 -8.287433 0.559683 -1.176353 -8.074606 -8.405952 14.331953 63.629059 -56.160931 -113.922173 3.096556 4.974753 17.816497 -5.230157 -23.833028 -5.711037 -4.279025 77.996863 -3.834386 9.967768 -12.241624 2.650129 -0.000453 -0.000793 -0.000201 6.115826 5.553747 1.451573 128.403579 65.431089 147.932444 6.503772 12.232569 0.083351 -0.005592 0.006431 -0.002478
-14.087688 126.910634 25.817749 -167.638130 -48.642479 -2.631337 -3.014964 26.113591 -0.630807 -0.488308 4.388921 -0.017983 -0.754457 6.935780 -0.030297 -2.432782 21.465033 -0.413088 -1.417764 12.231922 -4.352471 -0.505099 -12.719118 -4.323663 1.408877 3.896645 1.151338 5.409624 -7.290820 -9.908662 -92.563739 -63.323920 143.649770 5.573775 18.775314 -13.176408 -8.297057 0.552203 -1.172234 -8.068373 -8.411328 14.327637 63.732100 -56.212352 -113.999255 3.153711 5.014298 17.804960 -5.228656 -23.830818 -5.712772 -4.321174 78.022688 -3.877187 9.997756 -12.383332 2.652696 -0.001059 -0.000697 -0.000469 6.114098 5.555680 1.452983 128.409785 65.433096 147.934522 6.517263 12.246755 0.048411 -0.005842 0.009144 -0.002589
